<?xml version="1.0" encoding="utf-8"?>
<!-- Svg Vector Icons : http://www.onlinewebfonts.com/icon -->
<!DOCTYPE svg PUBLIC "-//W3C//DTD SVG 1.1//EN" "http://www.w3.org/Graphics/SVG/1.1/DTD/svg11.dtd">
<svg version="1.1" xmlns="http://www.w3.org/2000/svg" xmlns:xlink="http://www.w3.org/1999/xlink" x="0px" y="0px" viewBox="0 0 1000 1000" enable-background="new 0 0 1000 1000" xml:space="preserve">
<metadata> Svg Vector Icons : http://www.onlinewebfonts.com/icon </metadata>
<g><g><path d="M56.4,170.9c7.7-2.9,15.9-4.6,24.6-4.6h838c8.7,0,16.9,1.8,24.6,4.6L568.2,524.6c-38.2,36-98.1,36-136.3,0L56.4,170.9z M979.5,799.4c6.5-10.7,10.5-23.2,10.5-36.6V237.2c0-9.5-1.9-18.6-5.4-26.9l-351.4,331L979.5,799.4z M601.5,570.7c-29.2,25-65.3,37.7-101.5,37.7s-72.4-12.7-101.5-37.7L53.2,828.1c8.6,3.6,17.9,5.7,27.8,5.7h838c9.9,0,19.2-2,27.8-5.7L601.5,570.7z M15.4,210.3c-3.4,8.3-5.4,17.4-5.4,26.9v525.5c0,13.5,4,25.9,10.5,36.6l346.3-258.1L15.4,210.3z"/></g><g></g><g></g><g></g><g></g><g></g><g></g><g></g><g></g><g></g><g></g><g></g><g></g><g></g><g></g><g></g></g>
</svg>
